<svg width="22" height="29" viewBox="0 0 22 29" fill="none" xmlns="http://www.w3.org/2000/svg">
<g clip-path="url(#clip0)">
<path d="M0 29.0496V0H2.60651L2.66857 0.0931077L3.10298 0.869005L11.0466 0.837969C19.6357 1.08626 21.5347 6.15545 21.4106 8.65902V21.6631C20.9141 27.7461 14.0875 29.122 10.7363 29.0496H0Z" fill="#2B94F9"/>
<path fill-rule="evenodd" clip-rule="evenodd" d="M5.71973 29.0886L6.98027 10.3791C7.61144 10.0803 8.24261 9.78116 8.87346 9.48202L11.3611 9.40493L13.3365 6.16747L13.9219 11.9489C14.3852 12.2539 14.8486 12.5591 15.312 12.8642C15.629 13.073 15.9459 13.2818 16.2628 13.4904C16.3611 14.0017 16.4781 14.991 16.1167 16.1111C15.4447 18.1949 13.6626 19.0462 13.3365 19.1947L14.2877 19.8882L14.7384 28.5592C13.532 28.9288 12.3838 29.0839 11.4321 29.0886H5.71973Z" fill="white"/>
<path d="M15.3851 13.6433H13.2636C13.2171 13.8314 13.1615 14.1737 13.2636 14.5684C13.3711 14.9848 14.2765 15.6414 14.3318 15.6671C14.3792 15.6503 15.1571 15.2329 15.3121 14.8768C15.5619 14.3016 15.4234 13.7741 15.3851 13.6433Z" fill="#211915"/>
<path d="M15.3851 13.6433H13.2636C13.2171 13.8314 13.1615 14.1737 13.2636 14.5684C13.3711 14.9848 14.2765 15.6414 14.3318 15.6671C14.3792 15.6503 15.1571 15.2329 15.3121 14.8768C15.5619 14.3016 15.4234 13.7741 15.3851 13.6433Z" stroke="#211915" stroke-width="0.117028" stroke-miterlimit="10"/>
<path d="M8.3067 12.7956C8.3067 13.4766 8.57675 14.0287 8.91036 14.0287C9.24365 14.0287 9.51402 13.4766 9.51402 12.7956C9.51402 12.1143 9.24365 11.5622 8.91036 11.5622C8.57675 11.5622 8.3067 12.1143 8.3067 12.7956Z" fill="#211915"/>
<path d="M8.3067 12.7956C8.3067 13.4766 8.57675 14.0287 8.91036 14.0287C9.24365 14.0287 9.51402 13.4766 9.51402 12.7956C9.51402 12.1143 9.24365 11.5622 8.91036 11.5622C8.57675 11.5622 8.3067 12.1143 8.3067 12.7956Z" stroke="#211915" stroke-width="0.117028" stroke-miterlimit="10"/>
<path d="M11.4344 12.7956C11.4344 13.4766 11.7045 14.0287 12.0381 14.0287C12.3714 14.0287 12.6414 13.4766 12.6414 12.7956C12.6414 12.1143 12.3714 11.5622 12.0381 11.5622C11.7045 11.5622 11.4344 12.1143 11.4344 12.7956Z" fill="#211915"/>
<path d="M11.4344 12.7956C11.4344 13.4766 11.7045 14.0287 12.0381 14.0287C12.3714 14.0287 12.6414 13.4766 12.6414 12.7956C12.6414 12.1143 12.3714 11.5622 12.0381 11.5622C11.7045 11.5622 11.4344 12.1143 11.4344 12.7956Z" stroke="#211915" stroke-width="0.117028" stroke-miterlimit="10"/>
<path d="M4.03656 6.5934C4.36068 6.24748 4.87137 5.79383 5.59582 5.45483C6.27759 5.13527 6.90749 5.03083 7.35873 4.99822C7.82199 6.10219 8.28493 7.20551 8.74787 8.30948C8.82439 8.49199 8.90092 8.67417 8.97744 8.85669C8.76684 9.1835 8.30295 9.7966 7.48774 10.1412C6.90875 10.3856 6.37403 10.4011 6.03094 10.3784C5.36625 9.11662 4.70156 7.85484 4.03656 6.5934Z" fill="white"/>
<path d="M4.03656 6.5934C4.36068 6.24748 4.87137 5.79383 5.59582 5.45483C6.27759 5.13527 6.90749 5.03083 7.35873 4.99822C7.82199 6.10219 8.28493 7.20551 8.74787 8.30948C8.82439 8.49199 8.90092 8.67417 8.97744 8.85669C8.76684 9.1835 8.30295 9.7966 7.48774 10.1412C6.90875 10.3856 6.37403 10.4011 6.03094 10.3784C5.36625 9.11662 4.70156 7.85484 4.03656 6.5934Z" stroke="white" stroke-width="0.117028" stroke-miterlimit="10"/>
<path d="M5.8 9.92715C5.04803 10.4408 4.91997 10.6084 4.95159 10.7702C5.02116 11.126 5.83889 11.3197 6.36191 11.3487C7.10344 11.3906 7.63626 11.1244 8.07486 10.8974C8.57732 10.6381 9.61293 10.0833 9.94148 8.92465C9.99619 8.73192 10.0983 8.35602 9.94243 8.17812C9.77357 7.98507 9.39379 8.12838 8.80437 8.37513C7.11261 9.08344 6.41029 9.51007 5.8 9.92715Z" fill="white"/>
<path d="M5.8 9.92715C5.04803 10.4408 4.91997 10.6084 4.95159 10.7702C5.02116 11.126 5.83889 11.3197 6.36191 11.3487C7.10344 11.3906 7.63626 11.1244 8.07486 10.8974C8.57732 10.6381 9.61293 10.0833 9.94148 8.92465C9.99619 8.73192 10.0983 8.35602 9.94243 8.17812C9.77357 7.98507 9.39379 8.12838 8.80437 8.37513C7.11261 9.08344 6.41029 9.51007 5.8 9.92715Z" stroke="white" stroke-width="0.117028" stroke-miterlimit="10"/>
<path d="M5.49042 9.35254C5.94356 9.26457 6.51654 9.10018 7.13031 8.78128C7.72954 8.46929 8.19122 8.10163 8.52736 7.78405C8.67756 8.14149 8.82745 8.49894 8.97733 8.85672C8.77938 9.16673 8.35818 9.72646 7.62456 10.079C6.97916 10.389 6.37709 10.4015 6.03083 10.3784L5.49042 9.35254Z" fill="black"/>
<path d="M5.49042 9.35254C5.94356 9.26457 6.51654 9.10018 7.13031 8.78128C7.72954 8.46929 8.19122 8.10163 8.52736 7.78405C8.67756 8.14149 8.82745 8.49894 8.97733 8.85672C8.77938 9.16673 8.35818 9.72646 7.62456 10.079C6.97916 10.389 6.37709 10.4015 6.03083 10.3784L5.49042 9.35254Z" stroke="black" stroke-width="0.117028" stroke-miterlimit="10"/>
<path d="M9.14634 18.9657C9.37496 18.8369 9.81197 19.14 9.96281 19.2447C10.0589 19.3116 10.1519 19.393 10.157 19.3976C10.2891 19.5142 10.3856 19.6279 10.4507 19.7126C10.4944 19.8272 10.5658 20.0667 10.4678 20.2884C10.4314 20.3711 10.3654 20.4653 9.86921 20.7322C9.47963 20.942 9.28326 21.0458 9.18966 20.9994C9.02681 20.9183 9.01637 20.6113 9.00372 20.0005C8.99108 19.3713 8.98791 19.055 9.14634 18.9657Z" fill="black"/>
<path d="M12.1689 18.9657C11.9403 18.8369 11.5036 19.14 11.3528 19.2447C11.2563 19.3116 11.1637 19.393 11.1583 19.3976C11.0264 19.5142 10.93 19.6279 10.8645 19.7126C10.8209 19.8272 10.7497 20.0667 10.8475 20.2884C10.8841 20.3711 10.9502 20.4653 11.4464 20.7322C11.8356 20.942 12.0323 21.0458 12.1259 20.9994C12.2888 20.9183 12.2989 20.6113 12.3115 20.0005C12.3245 19.3713 12.3277 19.055 12.1689 18.9657Z" fill="black"/>
<path d="M10.4346 19.6874H10.9804V20.2765H10.4346V19.6874Z" fill="black"/>
</g>
<defs>
<clipPath id="clip0">
<rect width="22" height="29" fill="white"/>
</clipPath>
</defs>
</svg>
